#pragma bank 1

#include "hUGEDriver.h"
#include <stddef.h>

static const unsigned char order_cnt = 44;

static const unsigned char P0[] = {
    DN(F_5,1,0x047),
    DN(F_5,2,0x07B),
    DN(F_5,3,0x047),
    DN(F_5,4,0x07B),
    DN(F_5,1,0x047),
    DN(F_5,2,0x07B),
    DN(F_5,3,0x047),
    DN(F_5,4,0x07B),
    DN(F_5,1,0x047),
    DN(F_5,2,0x07B),
    DN(F_5,3,0x047),
    DN(F_5,4,0x07B),
    DN(F_5,1,0x047),
    DN(F_5,2,0x07B),
    DN(F_5,1,0x047),
    DN(F_5,2,0x07B),
    DN(F_5,3,0x047),
    DN(F_5,4,0x07B),
    DN(F_5,1,0x047),
    DN(F_5,2,0x07B),
    DN(F_5,1,0x047),
    DN(F_5,2,0x07B),
    DN(F_5,3,0x047),
    DN(F_5,4,0x07B),
    DN(F_5,1,0x047),
    DN(F_5,2,0x07B),
    DN(F_5,3,0x047),
    DN(F_5,4,0x07B),
    DN(F_5,1,0x047),
    DN(F_5,2,0x07B),
    DN(F_5,3,0x047),
    DN(F_5,4,0x07B),
    DN(F_5,1,0x047),
    DN(F_5,2,0x07B),
    DN(F_5,3,0x047),
    DN(F_5,4,0x07B),
    DN(F_5,1,0x047),
    DN(F_5,2,0x07B),
    DN(F_5,3,0x047),
    DN(F_5,4,0x07B),
    DN(F_5,1,0x047),
    DN(F_5,2,0x07B),
    DN(F_5,3,0x047),
    DN(F_5,4,0x07B),
    DN(F_5,1,0x047),
    DN(F_5,2,0x07B),
    DN(F_5,1,0x047),
    DN(F_5,2,0x07B),
    DN(F_5,3,0x047),
    DN(F_5,4,0x07B),
    DN(F_5,1,0x047),
    DN(F_5,2,0x07B),
    DN(F_5,1,0x047),
    DN(F_5,2,0x07B),
    DN(F_5,3,0x047),
    DN(F_5,4,0x07B),
    DN(F_5,1,0x047),
    DN(F_5,2,0x07B),
    DN(F_5,3,0x047),
    DN(F_5,4,0x07B),
    DN(F_5,1,0x047),
    DN(F_5,2,0x07B),
    DN(F_5,3,0x047),
    DN(F_5,4,0x07B),
};
static const unsigned char P1[] = {
    DN(___,0,0x000),
    DN(___,0,0x000),
    DN(___,0,0x000),
    DN(___,0,0x000),
    DN(___,0,0x000),
    DN(___,0,0x000),
    DN(___,0,0x000),
    DN(___,0,0x000),
    DN(___,0,0x000),
    DN(___,0,0x000),
    DN(___,0,0x000),
    DN(___,0,0x000),
    DN(___,0,0x000),
    DN(___,0,0x000),
    DN(___,0,0x000),
    DN(___,0,0x000),
    DN(___,0,0x000),
    DN(___,0,0x000),
    DN(___,0,0x000),
    DN(___,0,0x000),
    DN(___,0,0x000),
    DN(___,0,0x000),
    DN(___,0,0x000),
    DN(___,0,0x000),
    DN(___,0,0x000),
    DN(___,0,0x000),
    DN(___,0,0x000),
    DN(___,0,0x000),
    DN(___,0,0x000),
    DN(___,0,0x000),
    DN(___,0,0x000),
    DN(___,0,0x000),
    DN(___,0,0x000),
    DN(___,0,0x000),
    DN(___,0,0x000),
    DN(___,0,0x000),
    DN(___,0,0x000),
    DN(___,0,0x000),
    DN(___,0,0x000),
    DN(___,0,0x000),
    DN(___,0,0x000),
    DN(___,0,0x000),
    DN(___,0,0x000),
    DN(___,0,0x000),
    DN(___,0,0x000),
    DN(___,0,0x000),
    DN(___,0,0x000),
    DN(___,0,0x000),
    DN(___,0,0x000),
    DN(___,0,0x000),
    DN(___,0,0x000),
    DN(___,0,0x000),
    DN(___,0,0x000),
    DN(___,0,0x000),
    DN(___,0,0x000),
    DN(___,0,0x000),
    DN(___,0,0x000),
    DN(___,0,0x000),
    DN(___,0,0x000),
    DN(___,0,0x000),
    DN(___,0,0x000),
    DN(___,0,0x000),
    DN(___,0,0x000),
    DN(___,0,0x000),
};
static const unsigned char P2[] = {
    DN(F_4,1,0x2FF),
    DN(F_3,2,0x000),
    DN(___,0,0xC08),
    DN(___,0,0x000),
    DN(F_3,2,0x000),
    DN(___,0,0x000),
    DN(___,0,0xC08),
    DN(___,0,0x000),
    DN(F_4,1,0x2FF),
    DN(F_3,2,0x000),
    DN(___,0,0xC08),
    DN(___,0,0x000),
    DN(F_3,2,0x000),
    DN(___,0,0xC08),
    DN(F_3,2,0x000),
    DN(___,0,0xC08),
    DN(F_4,1,0x2FF),
    DN(F_3,2,0xC08),
    DN(F_3,2,0x000),
    DN(___,0,0xC08),
    DN(F_3,2,0x000),
    DN(___,0,0xC08),
    DN(___,0,0x000),
    DN(___,0,0x000),
    DN(F_4,1,0x2FF),
    DN(F_3,2,0x000),
    DN(___,0,0xC08),
    DN(___,0,0x000),
    DN(F_3,2,0x000),
    DN(___,0,0xC08),
    DN(___,0,0x000),
    DN(___,0,0x000),
    DN(F_4,1,0x2FF),
    DN(F_3,2,0x000),
    DN(___,0,0xC08),
    DN(___,0,0x000),
    DN(F_3,2,0x000),
    DN(___,0,0x000),
    DN(___,0,0xC08),
    DN(___,0,0x000),
    DN(F_4,1,0x2FF),
    DN(F_3,2,0x000),
    DN(___,0,0xC08),
    DN(___,0,0x000),
    DN(F_3,2,0x000),
    DN(___,0,0xC08),
    DN(F_3,2,0x000),
    DN(___,0,0xC08),
    DN(F_4,1,0x2FF),
    DN(F_3,2,0xC08),
    DN(F_3,2,0x000),
    DN(___,0,0xC08),
    DN(F_3,2,0x000),
    DN(___,0,0xC08),
    DN(___,0,0x000),
    DN(___,0,0x000),
    DN(F_4,1,0x2FF),
    DN(F_3,2,0x000),
    DN(___,0,0xC08),
    DN(___,0,0x000),
    DN(F_3,2,0x000),
    DN(___,0,0xC08),
    DN(___,0,0x000),
    DN(___,0,0x000),
};
static const unsigned char P3[] = {
    DN(F_7,1,0x000),
    DN(A_6,4,0x000),
    DN(___,0,0x000),
    DN(___,0,0x000),
    DN(___,0,0x000),
    DN(___,0,0x000),
    DN(___,0,0x000),
    DN(___,0,0x000),
    DN(F_7,1,0x000),
    DN(A_6,4,0x000),
    DN(___,0,0x000),
    DN(___,0,0x000),
    DN(___,0,0x000),
    DN(___,0,0x000),
    DN(___,0,0x000),
    DN(___,0,0x000),
    DN(F_7,1,0x000),
    DN(A_6,4,0x000),
    DN(___,0,0x000),
    DN(___,0,0x000),
    DN(___,0,0x000),
    DN(___,0,0x000),
    DN(___,0,0x000),
    DN(___,0,0x000),
    DN(F_7,1,0x000),
    DN(A_6,4,0x000),
    DN(___,0,0x000),
    DN(___,0,0x000),
    DN(___,0,0x000),
    DN(___,0,0x000),
    DN(___,0,0x000),
    DN(___,0,0x000),
    DN(F_7,1,0x000),
    DN(A_6,4,0x000),
    DN(___,0,0x000),
    DN(___,0,0x000),
    DN(___,0,0x000),
    DN(___,0,0x000),
    DN(___,0,0x000),
    DN(___,0,0x000),
    DN(F_7,1,0x000),
    DN(A_6,4,0x000),
    DN(___,0,0x000),
    DN(___,0,0x000),
    DN(___,0,0x000),
    DN(___,0,0x000),
    DN(___,0,0x000),
    DN(___,0,0x000),
    DN(F_7,1,0x000),
    DN(A_6,4,0x000),
    DN(___,0,0x000),
    DN(___,0,0x000),
    DN(___,0,0x000),
    DN(___,0,0x000),
    DN(___,0,0x000),
    DN(___,0,0x000),
    DN(F_7,1,0x000),
    DN(A_6,4,0x000),
    DN(___,0,0x000),
    DN(___,0,0x000),
    DN(___,0,0x000),
    DN(___,0,0x000),
    DN(___,0,0x000),
    DN(___,0,0x000),
};
static const unsigned char P4[] = {
    DN(E_5,1,0x037),
    DN(E_5,2,0x07A),
    DN(E_5,3,0x037),
    DN(E_5,4,0x07A),
    DN(E_5,1,0x037),
    DN(E_5,2,0x07A),
    DN(E_5,3,0x037),
    DN(E_5,4,0x07A),
    DN(E_5,1,0x037),
    DN(E_5,2,0x07A),
    DN(E_5,3,0x037),
    DN(E_5,4,0x07A),
    DN(E_5,1,0x037),
    DN(E_5,2,0x07A),
    DN(E_5,1,0x037),
    DN(E_5,2,0x07A),
    DN(E_5,3,0x037),
    DN(E_5,4,0x07A),
    DN(E_5,1,0x037),
    DN(E_5,2,0x07A),
    DN(E_5,1,0x037),
    DN(E_5,2,0x07A),
    DN(E_5,3,0x037),
    DN(E_5,4,0x07A),
    DN(E_5,1,0x037),
    DN(E_5,2,0x07A),
    DN(E_5,3,0x037),
    DN(E_5,4,0x07A),
    DN(E_5,1,0x037),
    DN(E_5,2,0x07A),
    DN(E_5,3,0x037),
    DN(E_5,4,0x07A),
    DN(E_5,1,0x037),
    DN(E_5,2,0x07A),
    DN(E_5,3,0x037),
    DN(E_5,4,0x07A),
    DN(E_5,1,0x037),
    DN(E_5,2,0x07A),
    DN(E_5,3,0x037),
    DN(E_5,4,0x07A),
    DN(E_5,1,0x037),
    DN(E_5,2,0x07A),
    DN(E_5,3,0x037),
    DN(E_5,4,0x07A),
    DN(E_5,1,0x037),
    DN(E_5,2,0x07A),
    DN(E_5,1,0x037),
    DN(E_5,2,0x07A),
    DN(E_5,3,0x037),
    DN(E_5,4,0x07A),
    DN(E_5,1,0x037),
    DN(E_5,2,0x07A),
    DN(E_5,1,0x037),
    DN(E_5,2,0x07A),
    DN(E_5,3,0x037),
    DN(E_5,4,0x07A),
    DN(E_5,1,0x037),
    DN(E_5,2,0x07A),
    DN(E_5,3,0x037),
    DN(E_5,4,0x07A),
    DN(E_5,1,0x037),
    DN(E_5,2,0x07A),
    DN(E_5,3,0x037),
    DN(E_5,4,0x07A),
};
static const unsigned char P5[] = {
    DN(E_4,1,0x2FF),
    DN(E_3,2,0x000),
    DN(___,0,0xC08),
    DN(___,0,0x000),
    DN(E_3,2,0x000),
    DN(___,0,0x000),
    DN(___,0,0xC08),
    DN(___,0,0x000),
    DN(E_4,1,0x2FF),
    DN(E_3,2,0x000),
    DN(___,0,0xC08),
    DN(___,0,0x000),
    DN(E_3,2,0x000),
    DN(___,0,0xC08),
    DN(E_3,2,0x000),
    DN(___,0,0xC08),
    DN(E_4,1,0x2FF),
    DN(E_3,2,0xC08),
    DN(E_3,2,0x000),
    DN(___,0,0xC08),
    DN(E_3,2,0x000),
    DN(___,0,0xC08),
    DN(___,0,0x000),
    DN(___,0,0x000),
    DN(E_4,1,0x2FF),
    DN(E_3,2,0x000),
    DN(___,0,0xC08),
    DN(___,0,0x000),
    DN(E_3,2,0x000),
    DN(___,0,0xC08),
    DN(___,0,0x000),
    DN(___,0,0x000),
    DN(E_4,1,0x2FF),
    DN(E_3,2,0x000),
    DN(___,0,0xC08),
    DN(___,0,0x000),
    DN(E_3,2,0x000),
    DN(___,0,0x000),
    DN(___,0,0xC08),
    DN(___,0,0x000),
    DN(E_4,1,0x2FF),
    DN(E_3,2,0x000),
    DN(___,0,0xC08),
    DN(___,0,0x000),
    DN(E_3,2,0x000),
    DN(___,0,0xC08),
    DN(E_3,2,0x000),
    DN(___,0,0xC08),
    DN(E_4,1,0x2FF),
    DN(E_3,2,0xC08),
    DN(E_3,2,0x000),
    DN(___,0,0xC08),
    DN(E_3,2,0x000),
    DN(___,0,0xC08),
    DN(___,0,0x000),
    DN(___,0,0x000),
    DN(E_4,1,0x2FF),
    DN(E_3,2,0x000),
    DN(___,0,0xC08),
    DN(___,0,0x000),
    DN(E_3,2,0x000),
    DN(___,0,0xC08),
    DN(___,0,0x000),
    DN(___,0,0x000),
};
static const unsigned char P6[] = {
    DN(F_7,1,0x000),
    DN(A_6,4,0x000),
    DN(___,0,0x000),
    DN(___,0,0x000),
    DN(___,0,0x000),
    DN(___,0,0x000),
    DN(___,0,0x000),
    DN(___,0,0x000),
    DN(F_7,1,0x000),
    DN(A_6,4,0x000),
    DN(___,0,0x000),
    DN(___,0,0x000),
    DN(___,0,0x000),
    DN(___,0,0x000),
    DN(___,0,0x000),
    DN(___,0,0x000),
    DN(F_7,1,0x000),
    DN(A_6,4,0x000),
    DN(___,0,0x000),
    DN(___,0,0x000),
    DN(___,0,0x000),
    DN(___,0,0x000),
    DN(___,0,0x000),
    DN(___,0,0x000),
    DN(F_7,1,0x000),
    DN(A_6,4,0x000),
    DN(___,0,0x000),
    DN(___,0,0x000),
    DN(___,0,0x000),
    DN(___,0,0x000),
    DN(___,0,0x000),
    DN(___,0,0x000),
    DN(F_7,1,0x000),
    DN(A_6,4,0x000),
    DN(___,0,0x000),
    DN(___,0,0x000),
    DN(___,0,0x000),
    DN(___,0,0x000),
    DN(___,0,0x000),
    DN(___,0,0x000),
    DN(F_7,1,0x000),
    DN(A_6,4,0x000),
    DN(___,0,0x000),
    DN(___,0,0x000),
    DN(___,0,0x000),
    DN(___,0,0x000),
    DN(___,0,0x000),
    DN(___,0,0x000),
    DN(F_7,1,0x000),
    DN(A_6,4,0x000),
    DN(___,0,0x000),
    DN(___,0,0x000),
    DN(___,0,0x000),
    DN(___,0,0x000),
    DN(___,0,0x000),
    DN(___,0,0x000),
    DN(F_7,1,0x000),
    DN(A_5,4,0xC04),
    DN(B_5,0,0x000),
    DN(Cs6,0,0x000),
    DN(Ds6,0,0x000),
    DN(F_6,0,0x000),
    DN(G_6,0,0x000),
    DN(A_6,0,0x000),
};
static const unsigned char P7[] = {
    DN(F_7,1,0x000),
    DN(___,0,0x000),
    DN(___,0,0x000),
    DN(___,0,0x000),
    DN(A_7,2,0x000),
    DN(___,0,0x000),
    DN(___,0,0x000),
    DN(___,0,0x000),
    DN(B_6,3,0x000),
    DN(___,0,0x000),
    DN(___,0,0x000),
    DN(___,0,0x000),
    DN(F_7,2,0x000),
    DN(___,0,0x000),
    DN(F_6,2,0x000),
    DN(___,0,0x000),
    DN(F_7,2,0x000),
    DN(___,0,0x000),
    DN(F_7,1,0x000),
    DN(___,0,0x000),
    DN(A_7,2,0x000),
    DN(___,0,0x000),
    DN(___,0,0x000),
    DN(___,0,0x000),
    DN(B_6,3,0x000),
    DN(___,0,0x000),
    DN(___,0,0x000),
    DN(___,0,0x000),
    DN(F_8,1,0x000),
    DN(___,0,0x000),
    DN(B_8,1,0x000),
    DN(___,0,0x000),
    DN(F_7,1,0x000),
    DN(___,0,0x000),
    DN(___,0,0x000),
    DN(___,0,0x000),
    DN(A_7,2,0x000),
    DN(___,0,0x000),
    DN(___,0,0x000),
    DN(___,0,0x000),
    DN(B_6,3,0x000),
    DN(___,0,0x000),
    DN(___,0,0x000),
    DN(___,0,0x000),
    DN(F_7,2,0x000),
    DN(___,0,0x000),
    DN(F_6,2,0x000),
    DN(___,0,0x000),
    DN(F_7,2,0x000),
    DN(___,0,0x000),
    DN(F_7,1,0x000),
    DN(___,0,0x000),
    DN(A_7,2,0x000),
    DN(___,0,0x000),
    DN(___,0,0x000),
    DN(___,0,0x000),
    DN(B_6,3,0x000),
    DN(___,0,0x000),
    DN(___,0,0x000),
    DN(___,0,0x000),
    DN(F_8,1,0x000),
    DN(___,0,0x000),
    DN(B_8,1,0x000),
    DN(___,0,0x000),
};
static const unsigned char P8[] = {
    DN(D_5,1,0x037),
    DN(D_5,2,0x07A),
    DN(D_5,3,0x037),
    DN(D_5,4,0x07A),
    DN(D_5,1,0x037),
    DN(D_5,2,0x07A),
    DN(D_5,3,0x037),
    DN(D_5,4,0x07A),
    DN(D_5,1,0x037),
    DN(D_5,2,0x07A),
    DN(D_5,3,0x037),
    DN(D_5,4,0x07A),
    DN(D_5,1,0x037),
    DN(D_5,2,0x07A),
    DN(D_5,1,0x037),
    DN(D_5,2,0x07A),
    DN(D_5,3,0x037),
    DN(D_5,4,0x07A),
    DN(D_5,1,0x037),
    DN(D_5,2,0x07A),
    DN(D_5,1,0x037),
    DN(D_5,2,0x07A),
    DN(D_5,3,0x037),
    DN(D_5,4,0x07A),
    DN(D_5,1,0x037),
    DN(D_5,2,0x07A),
    DN(D_5,3,0x037),
    DN(D_5,4,0x07A),
    DN(D_5,1,0x037),
    DN(D_5,2,0x07A),
    DN(D_5,3,0x037),
    DN(D_5,4,0x07A),
    DN(D_5,1,0x037),
    DN(D_5,2,0x07A),
    DN(D_5,3,0x037),
    DN(D_5,4,0x07A),
    DN(D_5,1,0x037),
    DN(D_5,2,0x07A),
    DN(D_5,3,0x037),
    DN(D_5,4,0x07A),
    DN(D_5,1,0x037),
    DN(D_5,2,0x07A),
    DN(D_5,3,0x037),
    DN(D_5,4,0x07A),
    DN(D_5,1,0x037),
    DN(D_5,2,0x07A),
    DN(D_5,1,0x037),
    DN(D_5,2,0x07A),
    DN(D_5,3,0x037),
    DN(D_5,4,0x07A),
    DN(D_5,1,0x037),
    DN(D_5,2,0x07A),
    DN(D_5,1,0x037),
    DN(D_5,2,0x07A),
    DN(D_5,3,0x037),
    DN(D_5,4,0x07A),
    DN(D_5,1,0x037),
    DN(D_5,2,0x07A),
    DN(D_5,3,0x037),
    DN(D_5,4,0x07A),
    DN(D_5,1,0x037),
    DN(D_5,2,0x07A),
    DN(D_5,3,0x037),
    DN(D_5,4,0x07A),
};
static const unsigned char P9[] = {
    DN(C_5,1,0x047),
    DN(C_5,2,0x07B),
    DN(C_5,3,0x047),
    DN(C_5,4,0x07B),
    DN(C_5,1,0x047),
    DN(C_5,2,0x07B),
    DN(C_5,3,0x047),
    DN(C_5,4,0x07B),
    DN(C_5,1,0x047),
    DN(C_5,2,0x07B),
    DN(C_5,3,0x047),
    DN(C_5,4,0x07B),
    DN(C_5,1,0x047),
    DN(C_5,2,0x07B),
    DN(C_5,1,0x047),
    DN(C_5,2,0x07B),
    DN(C_5,3,0x047),
    DN(C_5,4,0x07B),
    DN(C_5,1,0x047),
    DN(C_5,2,0x07B),
    DN(C_5,1,0x047),
    DN(C_5,2,0x07B),
    DN(C_5,3,0x047),
    DN(C_5,4,0x07B),
    DN(C_5,1,0x047),
    DN(C_5,2,0x07B),
    DN(C_5,3,0x047),
    DN(C_5,4,0x07B),
    DN(C_5,1,0x047),
    DN(C_5,2,0x07B),
    DN(C_5,3,0x047),
    DN(C_5,4,0x07B),
    DN(C_5,1,0x047),
    DN(C_5,2,0x07B),
    DN(C_5,3,0x047),
    DN(C_5,4,0x07B),
    DN(C_5,1,0x047),
    DN(C_5,2,0x07B),
    DN(C_5,3,0x047),
    DN(C_5,4,0x07B),
    DN(C_5,1,0x047),
    DN(C_5,2,0x07B),
    DN(C_5,3,0x047),
    DN(C_5,4,0x07B),
    DN(C_5,1,0x047),
    DN(C_5,2,0x07B),
    DN(C_5,1,0x047),
    DN(C_5,2,0x07B),
    DN(C_5,3,0x047),
    DN(C_5,4,0x07B),
    DN(C_5,1,0x047),
    DN(C_5,2,0x07B),
    DN(C_5,1,0x047),
    DN(C_5,2,0x07B),
    DN(C_5,3,0x047),
    DN(C_5,4,0x07B),
    DN(C_5,1,0x047),
    DN(C_5,2,0x07B),
    DN(C_5,3,0x047),
    DN(C_5,4,0x07B),
    DN(C_5,1,0x047),
    DN(C_5,2,0x07B),
    DN(C_5,3,0x047),
    DN(C_5,4,0x07B),
};
static const unsigned char P10[] = {
    DN(F_4,5,0x00C),
    DN(___,0,0x000),
    DN(___,0,0x000),
    DN(___,0,0x000),
    DN(___,0,0x940),
    DN(___,0,0x000),
    DN(___,0,0x000),
    DN(___,0,0x000),
    DN(___,0,0x900),
    DN(___,0,0x000),
    DN(___,0,0x000),
    DN(___,0,0x000),
    DN(A_4,5,0x00C),
    DN(___,0,0x000),
    DN(___,0,0x000),
    DN(___,0,0x000),
    DN(___,0,0x940),
    DN(___,0,0x000),
    DN(___,0,0x000),
    DN(___,0,0x000),
    DN(___,0,0x900),
    DN(___,0,0x000),
    DN(___,0,0x000),
    DN(___,0,0x000),
    DN(C_5,5,0x00C),
    DN(___,0,0x000),
    DN(___,0,0x000),
    DN(___,0,0x000),
    DN(___,0,0x940),
    DN(___,0,0x000),
    DN(___,0,0x000),
    DN(___,0,0x000),
    DN(___,0,0x900),
    DN(___,0,0x000),
    DN(___,0,0x000),
    DN(___,0,0x000),
    DN(E_5,5,0x00C),
    DN(___,0,0x000),
    DN(___,0,0x000),
    DN(___,0,0x000),
    DN(___,0,0x940),
    DN(___,0,0x000),
    DN(___,0,0x000),
    DN(___,0,0x000),
    DN(___,0,0x900),
    DN(___,0,0x000),
    DN(___,0,0x000),
    DN(___,0,0x000),
    DN(C_5,5,0x00C),
    DN(D_5,5,0x30F),
    DN(___,0,0x30F),
    DN(___,0,0x000),
    DN(C_5,5,0x00C),
    DN(___,0,0x000),
    DN(___,0,0x000),
    DN(___,0,0x000),
    DN(B_4,5,0x00C),
    DN(___,0,0x000),
    DN(___,0,0x000),
    DN(___,0,0x000),
    DN(G_4,5,0x00C),
    DN(___,0,0x000),
    DN(___,0,0x000),
    DN(___,0,0x000),
};
static const unsigned char P11[] = {
    DN(E_4,5,0x00C),
    DN(___,0,0x000),
    DN(___,0,0x000),
    DN(___,0,0x000),
    DN(___,0,0x940),
    DN(___,0,0x000),
    DN(___,0,0x000),
    DN(___,0,0x000),
    DN(___,0,0x900),
    DN(___,0,0x000),
    DN(___,0,0x000),
    DN(___,0,0x000),
    DN(G_4,5,0x00C),
    DN(___,0,0x000),
    DN(___,0,0x000),
    DN(___,0,0x000),
    DN(___,0,0x940),
    DN(___,0,0x000),
    DN(___,0,0x000),
    DN(___,0,0x000),
    DN(___,0,0x900),
    DN(___,0,0x000),
    DN(___,0,0x000),
    DN(___,0,0x000),
    DN(B_4,5,0x00C),
    DN(___,0,0x000),
    DN(___,0,0x000),
    DN(___,0,0x000),
    DN(___,0,0x940),
    DN(___,0,0x000),
    DN(___,0,0x000),
    DN(___,0,0x000),
    DN(___,0,0x900),
    DN(___,0,0x000),
    DN(___,0,0x000),
    DN(___,0,0x000),
    DN(D_5,5,0x00C),
    DN(___,0,0x000),
    DN(___,0,0x000),
    DN(___,0,0x000),
    DN(___,0,0x940),
    DN(___,0,0x000),
    DN(___,0,0x000),
    DN(___,0,0x000),
    DN(___,0,0x900),
    DN(___,0,0x000),
    DN(___,0,0x000),
    DN(___,0,0x000),
    DN(B_4,5,0x00C),
    DN(___,0,0x000),
    DN(___,0,0x000),
    DN(___,0,0x000),
    DN(C_5,5,0x00C),
    DN(___,0,0x000),
    DN(___,0,0x000),
    DN(___,0,0x000),
    DN(D_5,5,0x00C),
    DN(___,0,0x000),
    DN(___,0,0x000),
    DN(___,0,0x000),
    DN(E_5,5,0x00C),
    DN(___,0,0x000),
    DN(___,0,0x000),
    DN(___,0,0x000),
};
static const unsigned char P12[] = {
    DN(F_5,5,0x00C),
    DN(___,0,0x000),
    DN(___,0,0x000),
    DN(___,0,0x000),
    DN(___,0,0x940),
    DN(___,0,0x000),
    DN(___,0,0x000),
    DN(___,0,0x000),
    DN(___,0,0x900),
    DN(___,0,0x000),
    DN(___,0,0x000),
    DN(___,0,0x000),
    DN(E_5,5,0x00C),
    DN(___,0,0x000),
    DN(___,0,0x000),
    DN(___,0,0x000),
    DN(___,0,0x940),
    DN(___,0,0x000),
    DN(___,0,0x000),
    DN(___,0,0x000),
    DN(___,0,0x900),
    DN(___,0,0x000),
    DN(___,0,0x000),
    DN(___,0,0x000),
    DN(C_5,5,0x00C),
    DN(___,0,0x000),
    DN(___,0,0x000),
    DN(___,0,0x000),
    DN(___,0,0x940),
    DN(___,0,0x000),
    DN(___,0,0x000),
    DN(___,0,0x000),
    DN(___,0,0x900),
    DN(___,0,0x000),
    DN(___,0,0x000),
    DN(___,0,0x000),
    DN(A_4,5,0x00C),
    DN(___,0,0x000),
    DN(___,0,0x000),
    DN(___,0,0x000),
    DN(___,0,0x940),
    DN(___,0,0x000),
    DN(___,0,0x000),
    DN(___,0,0x000),
    DN(___,0,0x900),
    DN(___,0,0x000),
    DN(___,0,0x000),
    DN(___,0,0x000),
    DN(F_4,5,0x00C),
    DN(___,0,0x000),
    DN(___,0,0x000),
    DN(___,0,0x000),
    DN(G_4,5,0x00C),
    DN(___,0,0x000),
    DN(___,0,0x000),
    DN(___,0,0x000),
    DN(A_4,5,0x00C),
    DN(___,0,0x000),
    DN(___,0,0x000),
    DN(___,0,0x000),
    DN(C_5,5,0x00C),
    DN(___,0,0x000),
    DN(___,0,0x000),
    DN(___,0,0x000),
};
static const unsigned char P13[] = {
    DN(E_5,5,0x00C),
    DN(___,0,0x000),
    DN(___,0,0x000),
    DN(___,0,0x000),
    DN(___,0,0x940),
    DN(___,0,0x000),
    DN(___,0,0x000),
    DN(___,0,0x000),
    DN(E_5,6,0xC08),
    DN(___,0,0x000),
    DN(___,0,0x000),
    DN(___,0,0x000),
    DN(___,0,0x940),
    DN(___,0,0x000),
    DN(___,0,0x000),
    DN(___,0,0x000),
    DN(E_5,6,0xC06),
    DN(___,0,0x000),
    DN(___,0,0x000),
    DN(___,0,0x000),
    DN(___,0,0x940),
    DN(___,0,0x000),
    DN(___,0,0x000),
    DN(___,0,0x000),
    DN(E_5,6,0xC04),
    DN(___,0,0x000),
    DN(___,0,0x000),
    DN(___,0,0x000),
    DN(___,0,0x940),
    DN(___,0,0x000),
    DN(___,0,0x000),
    DN(___,0,0x000),
    DN(E_5,6,0xC04),
    DN(Ds5,0,0x011),
    DN(Ds5,0,0x011),
    DN(D_5,0,0x022),
    DN(D_5,0,0x022),
    DN(D_5,0,0x022),
    DN(Cs5,0,0x033),
    DN(Cs5,0,0x033),
    DN(C_5,0,0x044),
    DN(C_5,0,0x044),
    DN(C_5,0,0x044),
    DN(B_4,0,0x055),
    DN(B_4,0,0x055),
    DN(As4,0,0x066),
    DN(As4,0,0x066),
    DN(As4,0,0x066),
    DN(A_4,7,0x077),
    DN(A_4,0,0x077),
    DN(A_4,0,0x077),
    DN(Gs4,0,0x088),
    DN(Gs4,0,0x088),
    DN(G_4,0,0x099),
    DN(G_4,0,0x099),
    DN(G_4,0,0x099),
    DN(Fs4,0,0x0AA),
    DN(Fs4,0,0x0AA),
    DN(F_4,0,0x0BB),
    DN(F_4,0,0x0BB),
    DN(F_4,0,0x0BB),
    DN(E_4,0,0x0CC),
    DN(E_4,0,0x0CC),
    DN(E_4,0,0x0CC),
};
static const unsigned char P14[] = {
    DN(F_5,5,0x00C),
    DN(___,0,0x000),
    DN(___,0,0x000),
    DN(___,0,0x000),
    DN(___,0,0x940),
    DN(___,0,0x000),
    DN(___,0,0x000),
    DN(___,0,0x000),
    DN(A_5,5,0x00C),
    DN(___,0,0x000),
    DN(___,0,0x000),
    DN(___,0,0x000),
    DN(C_6,5,0x00C),
    DN(___,0,0x000),
    DN(___,0,0x000),
    DN(___,0,0x000),
    DN(___,0,0x940),
    DN(___,0,0x000),
    DN(___,0,0x000),
    DN(___,0,0x000),
    DN(D_6,5,0x00C),
    DN(___,0,0x000),
    DN(___,0,0x000),
    DN(___,0,0x000),
    DN(E_6,5,0x00C),
    DN(___,0,0x000),
    DN(___,0,0x000),
    DN(___,0,0x000),
    DN(___,0,0x940),
    DN(___,0,0x000),
    DN(___,0,0x000),
    DN(___,0,0x000),
    DN(E_6,6,0xC04),
    DN(___,0,0x000),
    DN(___,0,0x000),
    DN(___,0,0x000),
    DN(___,0,0x940),
    DN(___,0,0x000),
    DN(___,0,0x000),
    DN(___,0,0x000),
    DN(E_6,6,0xC02),
    DN(___,0,0x000),
    DN(___,0,0x000),
    DN(___,0,0x000),
    DN(___,0,0x940),
    DN(___,0,0x000),
    DN(___,0,0x000),
    DN(___,0,0x000),
    DN(G_6,5,0x00C),
    DN(___,0,0x000),
    DN(___,0,0x000),
    DN(___,0,0x000),
    DN(E_6,5,0x00C),
    DN(___,0,0x000),
    DN(___,0,0x000),
    DN(___,0,0x000),
    DN(D_6,5,0x00C),
    DN(___,0,0x000),
    DN(___,0,0x000),
    DN(___,0,0x000),
    DN(C_6,5,0x00C),
    DN(___,0,0x000),
    DN(___,0,0x000),
    DN(___,0,0x000),
};
static const unsigned char P15[] = {
    DN(D_4,1,0x2FF),
    DN(D_3,2,0x000),
    DN(___,0,0xC08),
    DN(___,0,0x000),
    DN(D_3,2,0x000),
    DN(___,0,0x000),
    DN(___,0,0xC08),
    DN(___,0,0x000),
    DN(D_4,1,0x2FF),
    DN(D_3,2,0x000),
    DN(___,0,0xC08),
    DN(___,0,0x000),
    DN(D_3,2,0x000),
    DN(___,0,0xC08),
    DN(D_3,2,0x000),
    DN(___,0,0xC08),
    DN(D_4,1,0x2FF),
    DN(D_3,2,0xC08),
    DN(D_3,2,0x000),
    DN(___,0,0xC08),
    DN(D_3,2,0x000),
    DN(___,0,0xC08),
    DN(___,0,0x000),
    DN(___,0,0x000),
    DN(D_4,1,0x2FF),
    DN(D_3,2,0x000),
    DN(___,0,0xC08),
    DN(___,0,0x000),
    DN(D_3,2,0x000),
    DN(___,0,0xC08),
    DN(___,0,0x000),
    DN(___,0,0x000),
    DN(D_4,1,0x2FF),
    DN(D_3,2,0x000),
    DN(___,0,0xC08),
    DN(___,0,0x000),
    DN(D_3,2,0x000),
    DN(___,0,0x000),
    DN(___,0,0xC08),
    DN(___,0,0x000),
    DN(D_4,1,0x2FF),
    DN(D_3,2,0x000),
    DN(___,0,0xC08),
    DN(___,0,0x000),
    DN(D_3,2,0x000),
    DN(___,0,0xC08),
    DN(D_3,2,0x000),
    DN(___,0,0xC08),
    DN(D_4,1,0x2FF),
    DN(D_3,2,0xC08),
    DN(D_3,2,0x000),
    DN(___,0,0xC08),
    DN(D_3,2,0x000),
    DN(___,0,0xC08),
    DN(___,0,0x000),
    DN(___,0,0x000),
    DN(D_4,1,0x2FF),
    DN(D_3,2,0x000),
    DN(___,0,0xC08),
    DN(___,0,0x000),
    DN(D_3,2,0x000),
    DN(___,0,0xC08),
    DN(___,0,0x000),
    DN(___,0,0x000),
};
static const unsigned char P16[] = {
    DN(C_4,1,0x2FF),
    DN(C_3,2,0x000),
    DN(___,0,0xC08),
    DN(___,0,0x000),
    DN(C_3,2,0x000),
    DN(___,0,0x000),
    DN(___,0,0xC08),
    DN(___,0,0x000),
    DN(C_4,1,0x2FF),
    DN(C_3,2,0x000),
    DN(___,0,0xC08),
    DN(___,0,0x000),
    DN(C_3,2,0x000),
    DN(___,0,0xC08),
    DN(C_3,2,0x000),
    DN(___,0,0xC08),
    DN(C_4,1,0x2FF),
    DN(C_3,2,0xC08),
    DN(C_3,2,0x000),
    DN(___,0,0xC08),
    DN(C_3,2,0x000),
    DN(___,0,0xC08),
    DN(___,0,0x000),
    DN(___,0,0x000),
    DN(C_4,1,0x2FF),
    DN(C_3,2,0x000),
    DN(___,0,0xC08),
    DN(___,0,0x000),
    DN(C_3,2,0x000),
    DN(___,0,0xC08),
    DN(___,0,0x000),
    DN(___,0,0x000),
    DN(C_4,1,0x2FF),
    DN(C_3,2,0x000),
    DN(___,0,0xC08),
    DN(___,0,0x000),
    DN(C_3,2,0x000),
    DN(___,0,0x000),
    DN(___,0,0xC08),
    DN(___,0,0x000),
    DN(C_4,1,0x2FF),
    DN(C_3,2,0x000),
    DN(___,0,0xC08),
    DN(___,0,0x000),
    DN(C_3,2,0x000),
    DN(___,0,0xC08),
    DN(C_3,2,0x000),
    DN(___,0,0xC08),
    DN(C_4,1,0x2FF),
    DN(C_3,2,0xC08),
    DN(C_3,2,0x000),
    DN(___,0,0xC08),
    DN(C_3,2,0x000),
    DN(___,0,0xC08),
    DN(___,0,0x000),
    DN(___,0,0x000),
    DN(C_4,1,0x2FF),
    DN(C_3,2,0x000),
    DN(___,0,0xC08),
    DN(___,0,0x000),
    DN(C_3,2,0x000),
    DN(___,0,0xC08),
    DN(___,0,0x000),
    DN(___,0,0x000),
};
static const unsigned char P17[] = {
    DN(B_5,5,0x00C),
    DN(___,0,0x000),
    DN(___,0,0x000),
    DN(___,0,0x000),
    DN(___,0,0x940),
    DN(___,0,0x000),
    DN(___,0,0x000),
    DN(___,0,0x000),
    DN(C_6,5,0x00C),
    DN(___,0,0x000),
    DN(___,0,0x000),
    DN(___,0,0x000),
    DN(D_6,5,0x00C),
    DN(___,0,0x000),
    DN(___,0,0x000),
    DN(___,0,0x000),
    DN(___,0,0x940),
    DN(___,0,0x000),
    DN(___,0,0x000),
    DN(___,0,0x000),
    DN(B_5,5,0x00C),
    DN(___,0,0x000),
    DN(___,0,0x000),
    DN(___,0,0x000),
    DN(G_5,5,0x00C),
    DN(___,0,0x000),
    DN(___,0,0x000),
    DN(___,0,0x000),
    DN(___,0,0x940),
    DN(___,0,0x000),
    DN(___,0,0x000),
    DN(___,0,0x000),
    DN(G_5,6,0xC04),
    DN(___,0,0x000),
    DN(___,0,0x000),
    DN(___,0,0x000),
    DN(___,0,0x940),
    DN(___,0,0x000),
    DN(___,0,0x000),
    DN(___,0,0x000),
    DN(G_5,6,0xC02),
    DN(___,0,0x000),
    DN(___,0,0x000),
    DN(___,0,0x000),
    DN(___,0,0x940),
    DN(___,0,0x000),
    DN(___,0,0x000),
    DN(___,0,0x000),
    DN(C_6,5,0x00C),
    DN(___,0,0x000),
    DN(___,0,0x000),
    DN(___,0,0x000),
    DN(D_6,5,0x00C),
    DN(___,0,0x000),
    DN(___,0,0x000),
    DN(___,0,0x000),
    DN(E_6,5,0x00C),
    DN(___,0,0x000),
    DN(___,0,0x000),
    DN(___,0,0x000),
    DN(G_6,5,0x00C),
    DN(___,0,0x000),
    DN(___,0,0x000),
    DN(___,0,0x000),
};
static const unsigned char P18[] = {
    DN(A_6,5,0x00C),
    DN(___,0,0x000),
    DN(___,0,0x000),
    DN(___,0,0x000),
    DN(___,0,0x940),
    DN(___,0,0x000),
    DN(___,0,0x000),
    DN(___,0,0x000),
    DN(G_6,5,0x00C),
    DN(___,0,0x000),
    DN(___,0,0x000),
    DN(___,0,0x000),
    DN(F_6,5,0x00C),
    DN(___,0,0x000),
    DN(___,0,0x000),
    DN(___,0,0x000),
    DN(___,0,0x940),
    DN(___,0,0x000),
    DN(___,0,0x000),
    DN(___,0,0x000),
    DN(E_6,5,0x00C),
    DN(F_6,5,0x000),
    DN(E_6,5,0x000),
    DN(___,0,0x000),
    DN(D_6,5,0x00C),
    DN(___,0,0x000),
    DN(___,0,0x000),
    DN(___,0,0x000),
    DN(___,0,0x940),
    DN(___,0,0x000),
    DN(___,0,0x000),
    DN(___,0,0x000),
    DN(D_6,6,0xC04),
    DN(___,0,0x000),
    DN(___,0,0x000),
    DN(___,0,0x000),
    DN(___,0,0x940),
    DN(___,0,0x000),
    DN(___,0,0x000),
    DN(___,0,0x000),
    DN(D_6,6,0xC02),
    DN(___,0,0x000),
    DN(___,0,0x000),
    DN(___,0,0x000),
    DN(___,0,0x940),
    DN(___,0,0x000),
    DN(___,0,0x000),
    DN(___,0,0x000),
    DN(D_6,5,0x00C),
    DN(___,0,0x000),
    DN(___,0,0x000),
    DN(___,0,0x000),
    DN(E_6,5,0x00C),
    DN(___,0,0x000),
    DN(___,0,0x000),
    DN(___,0,0x000),
    DN(F_6,5,0x00C),
    DN(___,0,0x000),
    DN(___,0,0x000),
    DN(___,0,0x000),
    DN(G_6,5,0x00C),
    DN(___,0,0x000),
    DN(___,0,0x000),
    DN(___,0,0x000),
};
static const unsigned char P19[] = {
    DN(E_6,5,0x00C),
    DN(___,0,0x000),
    DN(___,0,0x000),
    DN(___,0,0x000),
    DN(___,0,0x940),
    DN(___,0,0x000),
    DN(___,0,0x000),
    DN(___,0,0x000),
    DN(E_6,6,0xC08),
    DN(___,0,0x000),
    DN(___,0,0x000),
    DN(___,0,0x000),
    DN(___,0,0x940),
    DN(___,0,0x000),
    DN(___,0,0x000),
    DN(___,0,0x000),
    DN(E_6,6,0xC06),
    DN(___,0,0x000),
    DN(___,0,0x000),
    DN(___,0,0x000),
    DN(___,0,0x940),
    DN(___,0,0x000),
    DN(___,0,0x000),
    DN(___,0,0x000),
    DN(E_6,6,0xC04),
    DN(___,0,0x000),
    DN(___,0,0x000),
    DN(___,0,0x000),
    DN(___,0,0x940),
    DN(___,0,0x000),
    DN(___,0,0x000),
    DN(___,0,0x000),
    DN(E_6,6,0xC04),
    DN(Ds6,0,0x011),
    DN(Ds6,0,0x011),
    DN(D_6,0,0x022),
    DN(D_6,0,0x022),
    DN(D_6,0,0x022),
    DN(Cs6,0,0x033),
    DN(Cs6,0,0x033),
    DN(C_6,0,0x044),
    DN(C_6,0,0x044),
    DN(C_6,0,0x044),
    DN(B_5,0,0x055),
    DN(B_5,0,0x055),
    DN(As5,0,0x066),
    DN(As5,0,0x066),
    DN(As5,0,0x066),
    DN(A_5,7,0x077),
    DN(A_5,0,0x077),
    DN(A_5,0,0x077),
    DN(Gs5,0,0x088),
    DN(Gs5,0,0x088),
    DN(G_5,0,0x099),
    DN(G_5,0,0x099),
    DN(G_5,0,0x099),
    DN(Fs5,0,0x0AA),
    DN(Fs5,0,0x0AA),
    DN(F_5,0,0x0BB),
    DN(F_5,0,0x0BB),
    DN(F_5,0,0x0BB),
    DN(E_5,0,0x0CC),
    DN(E_5,0,0x0CC),
    DN(E_5,0,0x0CC),
};
static const unsigned char P20[] = {
    DN(F_5,1,0x047),
    DN(F_5,2,0x07B),
    DN(F_5,1,0x047),
    DN(F_5,2,0x07B),
    DN(F_5,1,0x047),
    DN(F_5,2,0x07B),
    DN(F_5,1,0x047),
    DN(F_5,2,0x07B),
    DN(F_5,1,0x047),
    DN(F_5,2,0x07B),
    DN(F_5,3,0x047),
    DN(F_5,4,0x07B),
    DN(F_5,1,0x047),
    DN(F_5,2,0x07B),
    DN(F_5,1,0x047),
    DN(F_5,2,0x07B),
    DN(F_5,1,0x047),
    DN(F_5,2,0x07B),
    DN(F_5,1,0x047),
    DN(F_5,2,0x07B),
    DN(F_5,1,0x047),
    DN(F_5,2,0x07B),
    DN(F_5,3,0x047),
    DN(F_5,4,0x07B),
    DN(F_5,1,0x047),
    DN(F_5,2,0x07B),
    DN(F_5,1,0x047),
    DN(F_5,2,0x07B),
    DN(F_5,1,0x047),
    DN(F_5,2,0x07B),
    DN(F_5,1,0x047),
    DN(F_5,2,0x07B),
    DN(F_5,1,0x047),
    DN(F_5,2,0x07B),
    DN(F_5,1,0x047),
    DN(F_5,2,0x07B),
    DN(F_5,1,0x047),
    DN(F_5,2,0x07B),
    DN(F_5,1,0x047),
    DN(F_5,2,0x07B),
    DN(F_5,1,0x047),
    DN(F_5,2,0x07B),
    DN(F_5,3,0x047),
    DN(F_5,4,0x07B),
    DN(F_5,1,0x047),
    DN(F_5,2,0x07B),
    DN(F_5,1,0x047),
    DN(F_5,2,0x07B),
    DN(F_5,1,0x047),
    DN(F_5,2,0x07B),
    DN(F_5,1,0x047),
    DN(F_5,2,0x07B),
    DN(F_5,1,0x047),
    DN(F_5,2,0x07B),
    DN(F_5,3,0x047),
    DN(F_5,4,0x07B),
    DN(F_5,1,0x047),
    DN(F_5,2,0x07B),
    DN(F_5,1,0x047),
    DN(F_5,2,0x07B),
    DN(F_5,1,0x047),
    DN(F_5,2,0x07B),
    DN(F_5,1,0x047),
    DN(F_5,2,0x07B),
};
static const unsigned char P21[] = {
    DN(E_5,1,0x037),
    DN(E_5,2,0x07A),
    DN(E_5,1,0x037),
    DN(E_5,2,0x07A),
    DN(E_5,1,0x037),
    DN(E_5,2,0x07A),
    DN(E_5,1,0x037),
    DN(E_5,2,0x07A),
    DN(E_5,1,0x037),
    DN(E_5,2,0x07A),
    DN(E_5,3,0x037),
    DN(E_5,4,0x07A),
    DN(E_5,1,0x037),
    DN(E_5,2,0x07A),
    DN(E_5,1,0x037),
    DN(E_5,2,0x07A),
    DN(E_5,1,0x037),
    DN(E_5,2,0x07A),
    DN(E_5,1,0x037),
    DN(E_5,2,0x07A),
    DN(E_5,1,0x037),
    DN(E_5,2,0x07A),
    DN(E_5,3,0x037),
    DN(E_5,4,0x07A),
    DN(E_5,1,0x037),
    DN(E_5,2,0x07A),
    DN(E_5,1,0x037),
    DN(E_5,2,0x07A),
    DN(E_5,1,0x037),
    DN(E_5,2,0x07A),
    DN(E_5,1,0x037),
    DN(E_5,2,0x07A),
    DN(E_5,1,0x037),
    DN(E_5,2,0x07A),
    DN(E_5,1,0x037),
    DN(E_5,2,0x07A),
    DN(E_5,1,0x037),
    DN(E_5,2,0x07A),
    DN(E_5,1,0x037),
    DN(E_5,2,0x07A),
    DN(E_5,1,0x037),
    DN(E_5,2,0x07A),
    DN(E_5,3,0x037),
    DN(E_5,4,0x07A),
    DN(E_5,1,0x037),
    DN(E_5,2,0x07A),
    DN(E_5,1,0x037),
    DN(E_5,2,0x07A),
    DN(E_5,1,0x037),
    DN(E_5,2,0x07A),
    DN(E_5,1,0x037),
    DN(E_5,2,0x07A),
    DN(E_5,1,0x037),
    DN(E_5,2,0x07A),
    DN(E_5,3,0x037),
    DN(E_5,4,0x07A),
    DN(E_5,1,0x037),
    DN(E_5,2,0x07A),
    DN(E_5,1,0x037),
    DN(E_5,2,0x07A),
    DN(E_5,1,0x037),
    DN(E_5,2,0x07A),
    DN(E_5,1,0x037),
    DN(E_5,2,0x07A),
};
static const unsigned char P22[] = {
    DN(D_5,1,0x037),
    DN(D_5,2,0x07A),
    DN(D_5,1,0x037),
    DN(D_5,2,0x07A),
    DN(D_5,1,0x037),
    DN(D_5,2,0x07A),
    DN(D_5,1,0x037),
    DN(D_5,2,0x07A),
    DN(D_5,1,0x037),
    DN(D_5,2,0x07A),
    DN(D_5,3,0x037),
    DN(D_5,4,0x07A),
    DN(D_5,1,0x037),
    DN(D_5,2,0x07A),
    DN(D_5,1,0x037),
    DN(D_5,2,0x07A),
    DN(D_5,1,0x037),
    DN(D_5,2,0x07A),
    DN(D_5,1,0x037),
    DN(D_5,2,0x07A),
    DN(D_5,1,0x037),
    DN(D_5,2,0x07A),
    DN(D_5,3,0x037),
    DN(D_5,4,0x07A),
    DN(D_5,1,0x037),
    DN(D_5,2,0x07A),
    DN(D_5,1,0x037),
    DN(D_5,2,0x07A),
    DN(D_5,1,0x037),
    DN(D_5,2,0x07A),
    DN(D_5,1,0x037),
    DN(D_5,2,0x07A),
    DN(D_5,1,0x037),
    DN(D_5,2,0x07A),
    DN(D_5,1,0x037),
    DN(D_5,2,0x07A),
    DN(D_5,1,0x037),
    DN(D_5,2,0x07A),
    DN(D_5,1,0x037),
    DN(D_5,2,0x07A),
    DN(D_5,1,0x037),
    DN(D_5,2,0x07A),
    DN(D_5,3,0x037),
    DN(D_5,4,0x07A),
    DN(D_5,1,0x037),
    DN(D_5,2,0x07A),
    DN(D_5,1,0x037),
    DN(D_5,2,0x07A),
    DN(D_5,1,0x037),
    DN(D_5,2,0x07A),
    DN(D_5,1,0x037),
    DN(D_5,2,0x07A),
    DN(D_5,1,0x037),
    DN(D_5,2,0x07A),
    DN(D_5,3,0x037),
    DN(D_5,4,0x07A),
    DN(D_5,1,0x037),
    DN(D_5,2,0x07A),
    DN(D_5,1,0x037),
    DN(D_5,2,0x07A),
    DN(D_5,1,0x037),
    DN(D_5,2,0x07A),
    DN(D_5,1,0x037),
    DN(D_5,2,0x07A),
};
static const unsigned char P23[] = {
    DN(C_5,1,0x047),
    DN(C_5,2,0x07B),
    DN(C_5,1,0x047),
    DN(C_5,2,0x07B),
    DN(C_5,1,0x047),
    DN(C_5,2,0x07B),
    DN(C_5,1,0x047),
    DN(C_5,2,0x07B),
    DN(C_5,1,0x047),
    DN(C_5,2,0x07B),
    DN(C_5,3,0x047),
    DN(C_5,4,0x07B),
    DN(C_5,1,0x047),
    DN(C_5,2,0x07B),
    DN(C_5,1,0x047),
    DN(C_5,2,0x07B),
    DN(C_5,1,0x047),
    DN(C_5,2,0x07B),
    DN(C_5,1,0x047),
    DN(C_5,2,0x07B),
    DN(C_5,1,0x047),
    DN(C_5,2,0x07B),
    DN(C_5,3,0x047),
    DN(C_5,4,0x07B),
    DN(C_5,1,0x047),
    DN(C_5,2,0x07B),
    DN(C_5,1,0x047),
    DN(C_5,2,0x07B),
    DN(C_5,1,0x047),
    DN(C_5,2,0x07B),
    DN(C_5,1,0x047),
    DN(C_5,2,0x07B),
    DN(C_5,1,0x047),
    DN(C_5,2,0x07B),
    DN(C_5,1,0x047),
    DN(C_5,2,0x07B),
    DN(C_5,1,0x047),
    DN(C_5,2,0x07B),
    DN(C_5,1,0x047),
    DN(C_5,2,0x07B),
    DN(C_5,1,0x047),
    DN(C_5,2,0x07B),
    DN(C_5,3,0x047),
    DN(C_5,4,0x07B),
    DN(C_5,1,0x047),
    DN(C_5,2,0x07B),
    DN(C_5,1,0x047),
    DN(C_5,2,0x07B),
    DN(C_5,1,0x047),
    DN(C_5,2,0x07B),
    DN(C_5,1,0x047),
    DN(C_5,2,0x07B),
    DN(C_5,1,0x047),
    DN(C_5,2,0x07B),
    DN(C_5,3,0x047),
    DN(C_5,4,0x07B),
    DN(C_5,1,0x047),
    DN(C_5,2,0x07B),
    DN(C_5,1,0x047),
    DN(C_5,2,0x07B),
    DN(C_5,1,0x047),
    DN(C_5,2,0x07B),
    DN(C_5,1,0x047),
    DN(C_5,2,0x07B),
};
static const unsigned char P25[] = {
    DN(F_7,1,0x000),
    DN(___,0,0x000),
    DN(A_7,2,0x000),
    DN(___,0,0x000),
    DN(F_7,1,0x000),
    DN(___,0,0x000),
    DN(F_7,1,0x000),
    DN(___,0,0x000),
    DN(F_7,1,0x000),
    DN(___,0,0x000),
    DN(A_7,2,0x000),
    DN(___,0,0x000),
    DN(B_6,3,0x000),
    DN(___,0,0x000),
    DN(___,0,0x000),
    DN(___,0,0x000),
    DN(B_6,3,0xC06),
    DN(___,0,0x000),
    DN(___,0,0x000),
    DN(___,0,0x000),
    DN(B_6,3,0xC04),
    DN(___,0,0x000),
    DN(___,0,0x000),
    DN(___,0,0x000),
    DN(F_7,1,0x000),
    DN(___,0,0x000),
    DN(A_7,2,0x000),
    DN(___,0,0x000),
    DN(F_7,1,0x000),
    DN(___,0,0x000),
    DN(F_7,1,0x000),
    DN(___,0,0x000),
    DN(F_7,1,0x000),
    DN(___,0,0x000),
    DN(A_7,2,0x000),
    DN(___,0,0x000),
    DN(F_7,1,0x000),
    DN(___,0,0x000),
    DN(F_7,1,0x000),
    DN(___,0,0x000),
    DN(F_7,1,0x000),
    DN(___,0,0x000),
    DN(A_7,2,0x000),
    DN(___,0,0x000),
    DN(B_6,3,0x000),
    DN(___,0,0x000),
    DN(___,0,0x000),
    DN(___,0,0x000),
    DN(B_6,3,0xC06),
    DN(___,0,0x000),
    DN(___,0,0x000),
    DN(___,0,0x000),
    DN(B_6,3,0xC04),
    DN(___,0,0x000),
    DN(___,0,0x000),
    DN(___,0,0x000),
    DN(B_6,3,0x000),
    DN(___,0,0x000),
    DN(___,0,0x000),
    DN(___,0,0x000),
    DN(B_6,3,0x000),
    DN(___,0,0x000),
    DN(___,0,0x000),
    DN(___,0,0xB05),
};
static const unsigned char P24[] = {
    DN(F_7,1,0x000),
    DN(___,0,0x000),
    DN(A_7,2,0x000),
    DN(___,0,0x000),
    DN(F_7,1,0x000),
    DN(___,0,0x000),
    DN(F_7,1,0x000),
    DN(___,0,0x000),
    DN(F_7,1,0x000),
    DN(___,0,0x000),
    DN(A_7,2,0x000),
    DN(___,0,0x000),
    DN(B_6,3,0x000),
    DN(___,0,0x000),
    DN(___,0,0x000),
    DN(___,0,0x000),
    DN(B_6,3,0xC06),
    DN(___,0,0x000),
    DN(___,0,0x000),
    DN(___,0,0x000),
    DN(B_6,3,0xC04),
    DN(___,0,0x000),
    DN(___,0,0x000),
    DN(___,0,0x000),
    DN(F_7,1,0x000),
    DN(___,0,0x000),
    DN(A_7,2,0x000),
    DN(___,0,0x000),
    DN(F_7,1,0x000),
    DN(___,0,0x000),
    DN(F_7,1,0x000),
    DN(___,0,0x000),
    DN(F_7,1,0x000),
    DN(___,0,0x000),
    DN(A_7,2,0x000),
    DN(___,0,0x000),
    DN(F_7,1,0x000),
    DN(___,0,0x000),
    DN(F_7,1,0x000),
    DN(___,0,0x000),
    DN(F_7,1,0x000),
    DN(___,0,0x000),
    DN(A_7,2,0x000),
    DN(___,0,0x000),
    DN(B_6,3,0x000),
    DN(___,0,0x000),
    DN(___,0,0x000),
    DN(___,0,0x000),
    DN(B_6,3,0xC06),
    DN(___,0,0x000),
    DN(___,0,0x000),
    DN(___,0,0x000),
    DN(B_6,3,0xC04),
    DN(___,0,0x000),
    DN(___,0,0x000),
    DN(___,0,0x000),
    DN(F_7,1,0x000),
    DN(___,0,0x000),
    DN(A_7,2,0x000),
    DN(___,0,0x000),
    DN(F_7,1,0x000),
    DN(___,0,0x000),
    DN(F_7,1,0x000),
    DN(___,0,0x000),
};

static const unsigned char itNoiseSP1[] = {
    DN(___,0,0x000),
    DN(22,0,0x000),
    DN(5,3,0x000),
    DN(5,0,0x000),
    DN(5,0,0x000),
    DN(5,0,0x000),
    DN(5,0,0x000),
    DN(___,0,0x000),
    DN(___,0,0x000),
    DN(___,0,0x000),
    DN(___,0,0x000),
    DN(___,0,0x000),
    DN(___,0,0x000),
    DN(___,0,0x000),
    DN(___,0,0x000),
    DN(___,0,0x000),
    DN(___,0,0x000),
    DN(___,0,0x000),
    DN(___,0,0x000),
    DN(___,0,0x000),
    DN(___,0,0x000),
    DN(___,0,0x000),
    DN(___,0,0x000),
    DN(___,0,0x000),
    DN(___,0,0x000),
    DN(___,0,0x000),
    DN(___,0,0x000),
    DN(___,0,0x000),
    DN(___,0,0x000),
    DN(___,0,0x000),
    DN(___,0,0x000),
    DN(___,1,0x000),
};
static const unsigned char itNoiseSP3[] = {
    DN(___,0,0x000),
    DN(26,0,0x000),
    DN(44,3,0x000),
    DN(44,0,0x000),
    DN(44,0,0x000),
    DN(44,0,0x000),
    DN(44,0,0x000),
    DN(___,0,0x000),
    DN(___,0,0x000),
    DN(___,0,0x000),
    DN(___,0,0x000),
    DN(___,0,0x000),
    DN(___,0,0x000),
    DN(___,0,0x000),
    DN(___,0,0x000),
    DN(___,0,0x000),
    DN(___,0,0x000),
    DN(___,0,0x000),
    DN(___,0,0x000),
    DN(___,0,0x000),
    DN(___,0,0x000),
    DN(___,0,0x000),
    DN(___,0,0x000),
    DN(___,0,0x000),
    DN(___,0,0x000),
    DN(___,0,0x000),
    DN(___,0,0x000),
    DN(___,0,0x000),
    DN(___,0,0x000),
    DN(___,0,0x000),
    DN(___,0,0x000),
    DN(___,1,0x000),
};
static const unsigned char* const order1[] = {P0,P4,P0,P4,P0,P4,P8,P9,P10,P11,P12,P13,P14,P17,P18,P19,P0,P4,P20,P21,P22,P23};
static const unsigned char* const order2[] = {P1,P1,P1,P1,P1,P1,P1,P1,P1,P1,P1,P1,P1,P1,P1,P1,P1,P1,P1,P1,P1,P1};
static const unsigned char* const order3[] = {P2,P5,P2,P5,P2,P5,P15,P16,P2,P5,P2,P5,P2,P5,P2,P5,P2,P5,P2,P5,P15,P16};
static const unsigned char* const order4[] = {P3,P3,P3,P6,P7,P7,P7,P7,P7,P7,P7,P7,P7,P7,P7,P7,P7,P7,P24,P24,P24,P25};

static const hUGEDutyInstr_t duty_instruments[] = {
    {8,64,160,0,128},
    {8,128,112,0,128},
    {8,64,96,0,128},
    {8,128,80,0,128},
    {8,128,245,0,128},
    {8,128,64,0,128},
    {8,128,32,0,128},
    {127,128,103,0,128},
    {8,128,240,0,128},
    {8,128,240,0,128},
    {8,128,240,0,128},
    {8,128,240,0,128},
    {8,128,240,0,128},
    {8,128,240,0,128},
    {8,128,240,0,128},
};
static const hUGEWaveInstr_t wave_instruments[] = {
    {250,32,0,0,128},
    {0,32,1,0,128},
    {0,32,0,0,128},
    {0,32,0,0,128},
    {0,32,0,0,128},
    {0,32,0,0,128},
    {0,32,0,0,128},
    {0,32,0,0,128},
    {0,32,0,0,128},
    {0,32,0,0,128},
    {0,32,0,0,128},
    {0,32,11,0,128},
    {0,32,12,0,128},
    {0,32,13,0,128},
    {0,32,14,0,128},
};
static const hUGENoiseInstr_t noise_instruments[] = {
    {145,itNoiseSP1,0,0,0},
    {83,0,0,0,0},
    {225,itNoiseSP3,0,0,0},
    {16,0,0,0,0},
    {240,0,0,0,0},
    {240,0,0,0,0},
    {240,0,0,0,0},
    {240,0,0,0,0},
    {240,0,0,0,0},
    {240,0,0,0,0},
    {240,0,0,0,0},
    {240,0,0,0,0},
    {240,0,0,0,0},
    {240,0,0,0,0},
    {240,0,0,0,0},
};

static const unsigned char waves[] = {
    0,0,0,0,255,255,255,255,0,0,0,0,255,255,255,255,
    138,205,239,255,237,185,116,16,138,205,239,255,0,0,0,0,
    0,0,0,0,0,0,0,0,0,0,0,0,0,0,0,0,
    0,0,0,0,0,0,0,0,0,0,0,0,0,0,0,0,
    0,0,0,0,0,0,0,0,0,0,0,0,0,0,0,0,
    0,0,0,0,0,0,0,0,0,0,0,0,0,0,0,0,
    0,0,0,0,0,0,0,0,0,0,0,0,0,0,0,0,
    0,0,0,0,0,0,0,0,0,0,0,0,0,0,0,0,
    0,0,0,0,0,0,0,0,0,0,0,0,0,0,0,0,
    0,0,0,0,0,0,0,0,0,0,0,0,0,0,0,0,
    0,0,0,0,0,0,0,0,0,0,0,0,0,0,0,0,
    0,0,0,0,0,0,0,0,0,0,0,0,0,0,0,0,
    0,0,0,0,0,0,0,0,0,0,0,0,0,0,0,0,
    0,0,0,0,0,0,0,0,0,0,0,0,0,0,0,0,
    0,0,0,0,0,0,0,0,0,0,0,0,0,0,0,0,
    0,0,0,0,0,0,0,0,0,0,0,0,0,0,0,0,
};

const hUGESong_t song_number2 = {3, &order_cnt, order1, order2, order3,order4, duty_instruments, wave_instruments, noise_instruments, NULL, waves};
